<?xml version="1.0" encoding="iso-8859-1"?>
<!-- Generator: Adobe Illustrator 19.0.0, SVG Export Plug-In . SVG Version: 6.00 Build 0)  -->
<svg xmlns="http://www.w3.org/2000/svg" xmlns:xlink="http://www.w3.org/1999/xlink" version="1.1" id="Layer_1" x="0px" y="0px" viewBox="0 0 311.533 311.533" style="enable-background:new 0 0 311.533 311.533;" xml:space="preserve" width="512" height="512">
<g>
	<path style="fill:#FD651B;" d="M260.021,311.533h-206c-8.284,0-15-6.716-15-15V15c0-8.284,6.716-15,15-15h206   c8.284,0,15,6.716,15,15v281.533C275.021,304.817,268.305,311.533,260.021,311.533z"/>
	<path style="fill:#D35C23;" d="M157.021,311.533h-103c-8.284,0-15-6.716-15-15V15c0-8.284,6.716-15,15-15h103V311.533z"/>
	<path style="fill:#6C4361;" d="M271.012,261.781c-8.284,0-15-6.716-15-15v-55.867c0-8.284,6.716-15,15-15s15,6.716,15,15v55.867   C286.012,255.065,279.296,261.781,271.012,261.781z"/>
	<path style="fill:#DCDBCD;" d="M192.021,105.767h-70c-8.284,0-15-6.716-15-15s6.716-15,15-15h70c8.284,0,15,6.716,15,15   S200.305,105.767,192.021,105.767z"/>
	<path style="fill:#B7B7AC;" d="M157.021,105.767h-35c-8.284,0-15-6.716-15-15s6.716-15,15-15h35V105.767z"/>
	<g>
		<path style="fill:#58364E;" d="M67.521,82.776h-27c-8.284,0-15-6.716-15-15s6.716-15,15-15h27c8.284,0,15,6.716,15,15    S75.805,82.776,67.521,82.776z"/>
		<path style="fill:#58364E;" d="M67.521,141.437h-27c-8.284,0-15-6.716-15-15s6.716-15,15-15h27c8.284,0,15,6.716,15,15    S75.805,141.437,67.521,141.437z"/>
		<path style="fill:#58364E;" d="M67.521,200.097h-27c-8.284,0-15-6.716-15-15s6.716-15,15-15h27c8.284,0,15,6.716,15,15    S75.805,200.097,67.521,200.097z"/>
		<path style="fill:#58364E;" d="M67.521,258.757h-27c-8.284,0-15-6.716-15-15s6.716-15,15-15h27c8.284,0,15,6.716,15,15    S75.805,258.757,67.521,258.757z"/>
	</g>
</g>















</svg>
